<svg xmlns="http://www.w3.org/2000/svg" viewBox="0 0 100 100">
        <path d="M40.60 68.26C36.28 68.26 35.98 67.42 35.98 63.94L35.98 27.64L34.48 27.64L26.56 29.74L26.56 31.36C26.56 31.36 27.46 31.24 28.48 31.24C29.98 31.24 31 31.36 31 33.82L31 63.94C31 67.30 30.76 68.26 26.80 68.26L26.80 70L40.60 70ZM57.40 68.32C53.38 68.32 53.08 67.42 53.08 63.94L53.08 41.08L51.52 41.08L43.96 42.76L43.96 44.50C43.96 44.50 44.62 44.38 45.46 44.38C47.20 44.38 48.10 44.62 48.10 47.20L48.10 63.94C48.10 67.36 47.92 68.32 43.90 68.32L43.90 70L57.40 70ZM50.68 29.62C48.58 29.62 47.26 31.18 47.26 32.98C47.26 34.84 48.64 36.40 50.68 36.40C52.78 36.40 54.10 34.84 54.10 32.98C54.10 31.18 52.78 29.62 50.68 29.62ZM70.18 48.58C71.92 46.96 74.56 44.74 77.68 44.74C80.44 44.74 82.48 46.06 82.48 51.16L82.48 63.04C82.48 67.24 82.12 68.26 77.86 68.26L77.86 70L92.08 70L92.08 68.26C87.76 68.26 87.46 67.18 87.46 63.04L87.46 48.46C89.44 46.78 91.90 44.74 94.36 44.74C97.18 44.74 99.52 46.06 99.52 51.52L99.52 63.04C99.52 66.70 99.34 68.26 95.26 68.26L95.26 70L108.82 70L108.82 68.26C104.68 68.26 104.50 66.82 104.50 63.04L104.50 50.80C104.50 43.54 101.44 40.90 96.76 40.90C93.58 40.90 90.52 42.64 87.22 45.88L86.98 45.88C85.78 43 83.74 40.90 80.32 40.90C76.24 40.90 73.48 43.12 70.24 45.94L70 45.94L70 41.08L68.56 41.08L61.06 42.82L61.06 44.56C61.06 44.56 61.78 44.44 62.68 44.44C64.36 44.44 65.20 44.98 65.20 47.14L65.20 63.94C65.20 67.54 64.78 68.26 61 68.26L61 70L74.68 70L74.68 68.26C70.96 68.26 70.18 67.54 70.18 64.18Z" />
    </svg>