<svg xmlns="http://www.w3.org/2000/svg" viewBox="0 0 100 100">
        <path d="M47.68 50.08C46.66 46.42 45.04 41.32 39.16 41.32C32.02 41.32 27.04 47.80 27.04 57.10C27.04 64.84 29.56 70.84 35.86 70.84C40.48 70.84 43.78 66.16 46.54 60.46L47.02 60.46C47.14 62.44 47.08 64.06 47.20 65.56C47.32 68.74 48.28 70.66 51.10 70.66C55.96 70.66 57.70 66.16 58.48 64.54L57.46 63.88C56.50 65.14 55.48 66.16 53.56 66.16C50.08 66.16 49.36 59.74 49.36 55.36C49.36 55.06 51.82 50.86 55.36 44.56L56.68 42.40L56.68 41.56L50.80 41.74C50.02 43.90 49.24 46.18 48.04 50.08ZM36.64 65.44C33.40 65.44 29.74 63.40 29.74 56.38C29.74 49.90 33.52 46.24 39.22 46.24C43.36 46.24 46.30 48.22 46.30 53.80C46.30 58.12 42.58 65.44 36.64 65.44Z" />
    </svg>