<svg xmlns="http://www.w3.org/2000/svg" viewBox="0 0 100 100">
        <path d="M51.88 41.62L46 41.80L39.94 58.96L38.62 63.22L38.14 63.22L38.14 58.90C37.96 53.68 38.08 41.44 31.12 41.44C27.52 41.44 25.42 44.50 24.46 47.62L25.48 48.22C26.68 46.30 27.88 45.76 29.56 45.76C35.26 45.76 35.74 58.96 36.10 66.88C35.74 68.20 35.26 69.58 34.84 70.90C33.70 74.32 32.56 77.80 32.62 81.04L35.74 82.84L37.06 82.84C39.22 79.90 39.28 73.78 39.34 69.70C39.34 68.74 39.34 67.84 39.40 67.18C43.42 58.96 47.68 50.56 51.88 42.52Z" />
    </svg>