<svg xmlns="http://www.w3.org/2000/svg" viewBox="0 0 100 100">
        <path d="M50.62 31.30C47.62 28.96 43.90 27.34 39.34 27.34C36.46 27.34 31.84 28.18 31.84 32.38C31.84 37.06 36.70 40.06 39.46 42.10L39.40 42.46C30.28 43.54 26.98 51.40 26.98 57.70C26.98 65.20 29.80 70.84 37.42 70.84C45.64 70.84 51.58 65.02 51.58 56.32C51.58 39.88 34.84 38.02 34.84 32.50C34.84 31.18 35.80 30.58 38.08 30.58C42.22 30.58 45.22 33.22 48.04 35.80L50.62 32.02ZM47.38 57.16C47.38 64 42.16 65.86 37.54 65.86C31.84 65.86 29.50 61.48 29.50 57.22C29.50 50.02 36.40 46.72 43.18 46.60C45.88 49.90 47.38 53.14 47.38 57.16Z" />
    </svg>