<svg xmlns="http://www.w3.org/2000/svg" viewBox="0 0 100 100">
        <path d="M59.26 42.70L59.26 41.74L37.84 41.74C31.60 41.74 27.64 43.72 26.08 49.24L27.28 49.84C29.20 46.60 30.52 46.54 37.54 46.54C36.88 51.76 35.98 55.18 33.52 60.46C31.66 64.54 31.18 65.26 28.96 69.10L29.14 70L34.78 70C36.58 65.86 39.46 52.84 39.82 46.54L48.70 46.54C47.68 52 46.12 58.72 46.12 63.64C46.12 67.54 47.68 70.54 51.28 70.54C54.94 70.54 56.86 68.62 58.48 65.56L57.52 64.72C56.68 65.50 55.78 66.34 53.62 66.34C51.10 66.34 50.14 63.76 50.14 59.50C50.14 55.12 50.92 48.76 51.28 46.54L58.48 46.54Z" />
    </svg>