<svg xmlns="http://www.w3.org/2000/svg" viewBox="0 0 100 100">
        <path d="M40.42 65.44C35.86 65.32 29.74 63.22 29.74 55.96C29.74 50.38 34.06 46.78 40.12 45.82L40.60 41.74L40.48 40.78C30.82 41.74 27.22 49 27.22 56.08C27.22 65.14 32.14 69.52 40.06 70.54L39.10 82.84L40.48 83.02L44.92 81.52L44.02 70.42C52.54 69.22 59.08 64.66 59.08 54.88C59.08 46.84 55.72 41.86 50.38 41.86C44.02 41.86 40.60 49.30 40.48 59.98ZM43.90 59.32C43.90 53.32 45.28 47.02 50.50 47.02C53.74 47.02 56.20 49.36 56.20 54.76C56.20 63.04 48.88 65.02 43.90 65.32Z" />
    </svg>