<svg xmlns="http://www.w3.org/2000/svg" viewBox="0 0 100 100">
        <path d="M45.40 61.60C47.02 57.88 48.10 53.32 48.10 50.20C48.10 49.36 46.48 48.64 43.66 48.64C42.34 48.64 42.04 51.88 42.04 54.70C42.04 57.40 42.40 59.62 43 61.84C42.40 62.98 41.08 65.20 37.36 65.20C32.02 65.20 29.86 61.36 29.86 56.62C29.86 51.34 33.58 47.86 38.68 46.48L39.16 42.40L38.98 41.38C31 43.18 27.16 49.12 27.16 56.02C27.16 62.50 29.44 70.66 36.52 70.66C40.72 70.66 43.12 66.46 43.84 64.24L44.14 64.24C45.70 67.90 47.62 70.66 52.06 70.66C58.72 70.66 62.50 64.90 62.50 57.64C62.50 51.46 59.50 43.24 52.48 41.62L52.06 42.40C56.56 46.12 58.42 51.64 58.42 56.98C58.42 62.38 55.78 65.44 50.86 65.44C47.20 65.44 45.88 63.64 45.40 61.60Z" />
    </svg>