<svg xmlns="http://www.w3.org/2000/svg" viewBox="0 0 100 100">
        <path d="M38.26 67C38.26 64.96 36.94 63.16 34.60 63.16C32.38 63.16 31 64.90 31 66.94C31 68.98 32.14 70.48 34.54 70.48C36.94 70.48 38.26 68.86 38.26 67ZM55.24 67C55.24 64.96 53.92 63.16 51.58 63.16C49.36 63.16 47.98 64.90 47.98 66.94C47.98 68.98 49.12 70.48 51.52 70.48C53.92 70.48 55.24 68.86 55.24 67ZM72.22 67C72.22 64.96 70.90 63.16 68.56 63.16C66.34 63.16 64.96 64.90 64.96 66.94C64.96 68.98 66.10 70.48 68.50 70.48C70.90 70.48 72.22 68.86 72.22 67Z" />
    </svg>