<svg xmlns="http://www.w3.org/2000/svg" viewBox="0 0 100 100">
        <path d="M28.96 45.22L30.94 46.12L38.02 32.62C38.32 31.90 38.68 31.18 38.68 30.40C38.68 29.02 37.96 27.82 36.40 27.82C34.30 27.82 33.58 29.44 33.10 31ZM37.36 45.16L39.34 46.06L46.42 32.56C46.72 31.84 47.08 31.12 47.08 30.34C47.08 28.96 46.36 27.82 44.86 27.82C42.64 27.82 42.04 29.26 41.50 30.94ZM45.76 45.16L47.80 46.06L54.82 32.56C55.12 31.84 55.48 31.12 55.48 30.34C55.48 28.96 54.76 27.82 53.26 27.82C51.10 27.82 50.44 29.26 49.96 31L49.96 30.94Z" />
    </svg>