<svg xmlns="http://www.w3.org/2000/svg" viewBox="0 0 100 100">
        <path d="M37.60 35.32C40.30 33.46 43.66 32.44 47.56 32.44C54.58 32.44 59.02 35.80 62.50 39.82L64.48 38.14C60.40 33.10 55.24 29.86 47.68 29.86C35.26 29.86 27.64 38.62 27.64 50.20C27.64 61.72 35.26 70.90 47.38 70.90C54.16 70.90 59.74 68.08 64.36 62.44L62.50 60.64C58.72 65.08 54.28 68.20 47.74 68.20C43.78 68.20 40.30 67.06 37.60 65.14ZM30.40 50.08C30.40 45.10 32.02 40.66 35.02 37.48L35.02 62.86C32.02 59.56 30.40 55.06 30.40 50.08Z" />
    </svg>