<svg xmlns="http://www.w3.org/2000/svg" viewBox="0 0 100 100">
        <path d="M82.96 61.06C79.60 64.72 75.58 66.88 70.06 66.88C61.60 66.88 55.72 61.72 55.72 49.72C55.72 39.04 60.58 32.44 69.22 32.44C75.40 32.44 79.66 35.74 80.98 43.60L83.02 43.60L83.02 29.86L81.22 29.86C80.50 31.06 80.14 32.02 79.18 32.02C77.68 32.02 75.46 29.86 69.16 29.86C57.64 29.86 49.48 37.24 49.48 50.32C49.48 62.02 55.96 70.66 68.32 70.66C76.18 70.66 81.16 67.18 84.40 62.32ZM46.42 37.30C46.42 31.60 42.16 28.12 37.24 28.12C32.02 28.12 28.12 31.66 28.12 37.30C28.12 42.94 31.90 46.42 37.24 46.42C42.58 46.42 46.42 42.94 46.42 37.30ZM43.12 37.30C43.12 41.38 40.60 43.60 37.24 43.60C33.88 43.60 31.42 41.32 31.42 37.30C31.42 33.28 34 30.94 37.24 30.94C40.60 30.94 43.12 33.22 43.12 37.30Z" />
    </svg>