<svg xmlns="http://www.w3.org/2000/svg" viewBox="0 0 100 100">
        <path d="M81.10 40.42L80.74 30.58L48.82 30.58L48.82 32.38C53.14 32.38 54.64 33.22 54.64 37.36L54.64 63.04C54.64 67.48 53.68 68.20 48.82 68.20L48.82 70L66.40 70L66.40 68.20C61.72 68.20 60.16 67.48 60.16 63.40L60.16 50.80L67.24 50.80C72.40 50.80 73.60 51.58 73.60 56.44L75.64 56.44L75.64 42.52L73.60 42.52C73.60 47.38 72.40 48.46 67.24 48.46L60.16 48.46L60.16 33.28L69.70 33.28C77.56 33.28 78.10 34.72 79.18 40.42ZM46.42 37.30C46.42 31.60 42.16 28.12 37.24 28.12C32.02 28.12 28.12 31.66 28.12 37.30C28.12 42.94 31.90 46.42 37.24 46.42C42.58 46.42 46.42 42.94 46.42 37.30ZM43.12 37.30C43.12 41.38 40.60 43.60 37.24 43.60C33.88 43.60 31.42 41.32 31.42 37.30C31.42 33.28 34 30.94 37.24 30.94C40.60 30.94 43.12 33.22 43.12 37.30Z" />
    </svg>