<svg xmlns="http://www.w3.org/2000/svg" viewBox="0 0 100 100">
        <path d="M79.54 54.16C73.66 51.70 68.98 47.08 64.96 42.46L63.76 43.66C65.08 45.70 67 47.86 68.80 49.54C69.40 50.14 69.64 50.56 69.64 51.10C69.64 51.70 68.68 52.42 68.08 52.42L38.86 52.42C37.78 52.42 37.30 51.82 37.30 51.22C37.30 50.74 37.60 50.02 38.14 49.48C40 47.56 41.74 45.64 43.18 43.60L41.92 42.40C37.90 47.08 33.22 51.64 27.34 54.16L27.34 54.76C33.22 57.22 37.90 61.84 41.86 66.46L43.12 65.26C41.74 63.28 39.88 61.12 38.08 59.38C37.48 58.78 37.24 58.42 37.24 57.82C37.24 57.22 38.20 56.50 38.80 56.50L68.02 56.50C69.10 56.50 69.58 57.10 69.58 57.70C69.58 58.24 69.28 58.90 68.74 59.44C66.88 61.36 65.08 63.34 63.70 65.32L64.90 66.52C68.98 61.84 73.66 57.28 79.54 54.76ZM117.58 80.14L117.58 22.90L82.48 22.90L82.48 80.14ZM114.46 76.96L85.54 76.96L85.54 25.96L114.46 25.96ZM101.08 59.80L101.08 58.84C101.08 52.30 110.74 47.62 110.74 38.80C110.74 32.56 105.52 29.86 99.64 29.86C93.58 29.86 89.44 33.28 89.44 38.14C89.44 40.96 90.58 42.34 92.50 42.34C93.94 42.34 95.20 41.56 95.20 39.70C95.20 37.42 93.94 37.36 93.94 35.38C93.94 33.52 95.56 32.14 99.10 32.14C102.94 32.14 105.34 34.24 105.34 38.98C105.34 48.22 98.68 50.44 98.68 58.24L98.68 59.80ZM103.36 67.12C103.36 65.26 102.10 63.58 100 63.58C97.78 63.58 96.46 65.20 96.46 67.12C96.46 69.10 97.60 70.48 99.94 70.48C102.10 70.48 103.36 69.04 103.36 67.12Z" />
    </svg>