<svg xmlns="http://www.w3.org/2000/svg" viewBox="0 0 100 100">
        <path d="M68.32 34.18L64.06 34.18L60.52 38.26C56.98 35.80 53.02 34.18 48.40 34.18C37.24 34.18 28.06 43.42 28.06 54.52C28.06 59.92 30.28 65.08 33.82 68.74L28.48 74.86L32.74 74.86L36.28 70.84C39.82 73.42 43.96 74.86 48.40 74.86C59.50 74.86 68.74 65.74 68.74 54.52C68.74 49.18 66.58 44.20 62.92 40.42ZM36.52 65.68C33.70 62.74 32.14 58.72 32.14 54.46C32.14 45.52 39.34 38.26 48.40 38.26C51.76 38.26 55.90 39.58 57.82 41.38ZM60.34 43.36C63.10 46.42 64.66 50.32 64.66 54.46C64.66 63.52 57.34 70.84 48.40 70.84C44.98 70.84 41.68 69.76 38.92 67.78Z" />
    </svg>