<svg xmlns="http://www.w3.org/2000/svg" viewBox="0 0 100 100">
        <path d="M61.06 29.32L57.22 29.32L53.20 37.42L45.82 37.42C35.98 37.42 29.50 45.34 29.50 54.40C29.50 60.58 32.38 66.22 37.30 69.28L32.14 79.66L35.98 79.66L40.42 70.72C42.04 71.26 43.78 71.56 45.64 71.56L63.76 71.56L63.76 67.48L46.18 67.48C44.74 67.48 43.48 67.30 42.28 67L47.50 56.50L63.76 56.50L63.76 52.42L49.54 52.42L55 41.44L63.76 41.44L63.76 37.42L57.04 37.42ZM51.16 41.44L45.70 52.42L34.30 52.42C34.90 46.60 38.38 41.44 46.12 41.44ZM34.30 56.50L43.66 56.50L39.16 65.50C36.22 63.52 34.72 60.10 34.30 56.50Z" />
    </svg>