<svg xmlns="http://www.w3.org/2000/svg" viewBox="0 0 100 100">
        <path d="M65.02 14.68L48.94 75.58L48.70 75.58L36.82 44.98L35.62 44.98L26.08 51.58L27.04 53.26L33.28 50.86L47.26 85.90L49.78 85.90L67.78 18.76L74.74 18.76L74.74 14.68ZM29.32 19.72C30.52 17.68 32.44 16.78 34.60 16.78C37 16.78 38.86 17.98 38.86 20.32C38.86 23.62 35.86 25.42 32.98 25.42L32.08 25.42L32.08 27.52L33.10 27.52C37.24 27.52 40.42 29.68 40.42 33.22C40.42 37.30 37.48 38.26 35.38 38.26C34.18 38.26 33.82 38.02 32.08 37.06C30.58 36.28 30.22 36.04 29.80 36.04C28.42 36.04 28 37.24 28 38.02C28 39.34 28.84 40.48 32.74 40.48C38.68 40.48 44.44 38.20 44.44 32.20C44.44 28.30 41.50 26.20 38.20 25.42L38.20 25.12C40.84 23.50 42.88 22.06 42.88 19.30C42.88 15.94 39.82 13.78 35.62 13.78C32.38 13.78 29.56 15.58 28 19.12Z" />
    </svg>