<svg xmlns="http://www.w3.org/2000/svg" viewBox="0 0 100 100">
        <path d="M65.08 64.84C61.42 64.84 58.42 61.66 54.46 55.12L54.46 54.94C56.14 52.12 59.56 48.76 65.08 48.76L65.08 43.60C58.90 43.60 56.08 47.50 53.26 52.60C47.38 44.74 44.32 43.60 39.82 43.60C36.28 43.60 28.12 46.42 28.12 57.70C28.12 66.22 33.64 70 38.92 70C44.80 70 49 66.70 51.76 61.12C55.54 66.76 59.08 70 65.08 70ZM50.38 58.90C48.76 61.12 45.82 64.84 40.36 64.84C34.90 64.84 31.78 59.74 31.78 54.52C31.78 50.62 34.48 47.20 37.96 47.20C42.10 47.20 46 51.40 50.38 58.72Z" />
    </svg>