<svg xmlns="http://www.w3.org/2000/svg" viewBox="0 0 100 100">
        <path d="M77.68 56.38C77.68 48.16 72.04 43.60 66.52 43.60C60.28 43.60 57.46 47.50 54.64 52.60C48.82 44.74 45.76 43.60 41.26 43.60C37.72 43.60 29.50 46.42 29.50 57.70C29.50 66.22 35.08 70 40.36 70C46.24 70 50.44 66.70 53.20 61.12C56.98 66.76 60.52 70 65.50 70C73.30 70 77.68 62.32 77.68 56.38ZM51.82 58.90C50.14 61.12 47.20 64.84 41.74 64.84C36.34 64.84 33.22 59.74 33.22 54.52C33.22 50.62 35.92 47.20 39.34 47.20C43.54 47.20 47.38 51.40 51.82 58.72ZM55.90 54.94C57.64 52.36 59.98 48.76 65.44 48.76C70.90 48.76 74.02 53.50 74.02 59.08C74.02 63.04 71.32 66.40 67.84 66.40C63.70 66.40 60.28 62.44 55.90 55.12Z" />
    </svg>