<svg xmlns="http://www.w3.org/2000/svg" viewBox="0 0 100 100">
        <path d="M46.68 24.74C45.48 25.82 44.88 26.96 44.88 28.40C44.88 30.14 45.78 31.04 47.22 31.04C49.02 31.04 51.24 29.54 51.24 26.48C51.24 23.06 48.66 21.38 45.72 21.38C34.98 21.38 31.32 37.34 28.92 50.24C26.46 63.26 25.02 76.22 19.68 76.22C18.66 76.22 18.24 75.86 18.24 75.86L18.24 75.44C19.02 74.30 19.62 73.34 19.62 71.66C19.62 70.16 18.84 69.14 17.28 69.14C15.42 69.14 13.80 70.70 13.80 73.46C13.80 75.92 15.48 78.56 19.74 78.56C27.84 78.56 32.52 65.12 35.70 47.48C37.56 37.10 39.12 24.02 44.64 24.02C46.14 24.02 46.68 24.38 46.68 24.38Z" />
    </svg>