<svg xmlns="http://www.w3.org/2000/svg" viewBox="0 0 100 100">
        <path d="M64.72 71.68L64.72 67.60L44.14 67.60L47.50 59.38L64.72 59.38L64.72 55.36L49.18 55.36L51.70 49.18C52.78 49.60 53.92 49.84 55 49.84C61.06 49.84 64.36 42.58 64.72 37.30L62.68 37.30C61.78 41.68 59.74 45.82 55.48 45.82C54.82 45.82 54.10 45.64 53.32 45.34L59.50 30.28L56.26 30.28L50.62 43.90C46.84 41.56 42.52 37.96 38.56 37.96C32.50 37.96 28.84 44.32 28.54 50.50L30.58 50.50C31.54 46.12 33.82 41.98 38.14 41.98C41.08 41.98 44.92 45.52 49 47.86L45.94 55.36L28.54 55.36L28.54 59.38L44.26 59.38L40.90 67.60L28.54 67.60L28.54 71.68L39.22 71.68L34.78 82.42L38.08 82.42L42.46 71.68Z" />
    </svg>