<svg xmlns="http://www.w3.org/2000/svg" viewBox="0 0 100 100">
        <path d="M62.68 40.84C61.78 45.22 59.74 49.30 55.48 49.30C51.04 49.30 44.44 41.44 38.56 41.44C32.50 41.44 28.84 47.86 28.54 53.98L30.58 53.98C31.54 49.60 33.82 45.52 38.14 45.52C42.52 45.52 49.12 53.38 55 53.38C61.06 53.38 64.36 46.06 64.72 40.84ZM62.68 55.36C61.78 59.68 59.74 63.82 55.48 63.82C51.04 63.82 44.44 55.96 38.56 55.96C32.50 55.96 28.84 62.32 28.54 68.50L30.58 68.50C31.54 64.12 33.82 59.98 38.14 59.98C42.52 59.98 49.12 67.84 55 67.84C61.06 67.84 64.36 60.58 64.72 55.36Z" />
    </svg>