<svg xmlns="http://www.w3.org/2000/svg" viewBox="0 0 100 100">
        <path d="M58.72 29.32L55.36 29.32L51.58 38.02C50.20 37.66 48.70 37.42 47.14 37.42L29.44 37.42L29.44 41.44L47.14 41.44C48.10 41.44 49.06 41.56 49.90 41.80L38.74 67.48L29.44 67.48L29.44 71.56L36.94 71.56L33.46 79.60L36.76 79.60L40.30 71.56L47.32 71.56C57.10 71.56 63.76 63.52 63.76 54.40C63.76 47.86 60.16 41.86 54.46 39.04ZM42.04 67.48L52.72 42.94C56.86 45.22 59.08 49.72 59.08 54.40C59.08 61 54.10 67.48 47.08 67.48Z" />
    </svg>