<svg xmlns="http://www.w3.org/2000/svg" viewBox="0 0 100 100">
        <path d="M59.56 25.18L56.26 25.18L53.44 32.74L45.82 32.74C35.98 32.74 29.50 40.66 29.50 49.72C29.50 57.28 33.88 64.12 40.96 66.22L38.68 72.28L30.10 72.28L30.10 76.36L37.18 76.36L34.30 84.10L37.60 84.10L40.48 76.36L63.76 76.36L63.76 72.28L41.98 72.28L44.02 66.82C44.56 66.88 45.10 66.88 45.64 66.88L63.76 66.88L63.76 62.80L46.18 62.80C45.94 62.80 45.76 62.80 45.52 62.80L55.24 36.76L63.76 36.76L63.76 32.74L56.74 32.74ZM51.94 36.76L42.40 62.32C36.52 60.70 34.18 55.24 34.18 49.72C34.18 43.18 37.48 36.76 46.12 36.76Z" />
    </svg>