<svg xmlns="http://www.w3.org/2000/svg" viewBox="0 0 100 100">
        <path d="M73.66 54.52C73.66 41.92 63.46 31.72 50.86 31.72C38.26 31.72 28.06 41.92 28.06 54.52C28.06 67.12 38.26 77.32 50.86 77.32C63.46 77.32 73.66 67.12 73.66 54.52ZM69.58 54.52C69.58 64.84 61.18 73.30 50.86 73.30C40.54 73.30 32.14 64.84 32.14 54.52C32.14 44.20 40.54 35.80 50.86 35.80C61.18 35.80 69.58 44.20 69.58 54.52ZM55.12 54.52C55.12 51.94 53.02 50.20 50.80 50.20C48.58 50.20 46.36 51.88 46.36 54.52C46.36 57.22 48.16 58.96 50.80 58.96C53.44 58.96 55.12 56.86 55.12 54.52Z" />
    </svg>