<svg xmlns="http://www.w3.org/2000/svg" viewBox="0 0 100 100">
        <path d="M38.14 54.52C38.14 52.60 36.94 50.92 34.54 50.92C32.20 50.92 31 52.48 31 54.52C31 56.56 32.08 58.06 34.48 58.06C36.94 58.06 38.14 56.50 38.14 54.52ZM57.16 54.52C57.16 52.60 55.96 50.92 53.56 50.92C51.22 50.92 50.02 52.48 50.02 54.52C50.02 56.56 51.10 58.06 53.50 58.06C55.96 58.06 57.16 56.50 57.16 54.52ZM76.18 54.52C76.18 52.60 74.98 50.92 72.58 50.92C70.24 50.92 69.04 52.48 69.04 54.52C69.04 56.56 70.12 58.06 72.52 58.06C74.98 58.06 76.18 56.50 76.18 54.52Z" />
    </svg>