<svg xmlns="http://www.w3.org/2000/svg" viewBox="0 0 100 100">
        <path d="M37.72 46.58C39.46 44.96 42.10 42.74 45.22 42.74C47.98 42.74 50.02 44.06 50.02 49.16L50.02 61.04C50.02 65.24 49.66 66.26 45.40 66.26L45.40 68L59.62 68L59.62 66.26C55.30 66.26 55 65.18 55 61.04L55 46.46C56.98 44.78 59.44 42.74 61.90 42.74C64.72 42.74 67.06 44.06 67.06 49.52L67.06 61.04C67.06 64.70 66.88 66.26 62.80 66.26L62.80 68L76.36 68L76.36 66.26C72.22 66.26 72.04 64.82 72.04 61.04L72.04 48.80C72.04 41.54 68.98 38.90 64.30 38.90C61.12 38.90 58.06 40.64 54.76 43.88L54.52 43.88C53.32 41 51.28 38.90 47.86 38.90C43.78 38.90 41.02 41.12 37.78 43.94L37.54 43.94L37.54 39.08L36.10 39.08L28.60 40.82L28.60 42.56C28.60 42.56 29.32 42.44 30.22 42.44C31.90 42.44 32.74 42.98 32.74 45.14L32.74 61.94C32.74 65.54 32.32 66.26 28.54 66.26L28.54 68L42.22 68L42.22 66.26C38.50 66.26 37.72 65.54 37.72 62.18ZM9.70 51.80C9.70 65.18 16 74.72 25.66 79.76L26.62 78.20C17.86 72.26 14.62 64.04 14.62 51.80C14.62 39.56 17.86 31.34 26.62 25.40L25.66 23.84C16 28.88 9.70 38.42 9.70 51.80ZM94.66 51.80C94.66 38.42 88.36 28.88 78.70 23.84L77.74 25.40C86.50 31.34 89.74 39.56 89.74 51.80C89.74 64.04 86.50 72.26 77.74 78.20L78.70 79.76C88.36 74.72 94.66 65.18 94.66 51.80Z" />
    </svg>