<svg xmlns="http://www.w3.org/2000/svg" viewBox="0 0 100 100">
        <path d="M28 50.32C28 63.16 37.60 72.94 50.62 72.94C63.46 72.94 73.30 63.16 73.30 50.32C73.30 37.30 63.46 27.64 50.62 27.64C37.78 27.64 28 37.30 28 50.32ZM30.34 50.32C30.34 38.56 39.10 29.86 50.62 29.86C62.14 29.86 70.96 38.56 70.96 50.32C70.96 61.90 62.14 70.72 50.62 70.72C38.92 70.72 30.34 61.90 30.34 50.32ZM57.16 45.76L57.16 39.16L55.96 39.16C55.72 39.88 55.48 40.12 54.88 40.12C54.64 40.12 54.40 40 54.04 39.82C53.32 39.52 52.24 38.98 50.14 39.04C46.72 39.04 43.48 40.96 43.48 44.62C43.48 48.10 46.18 49.66 48.94 51.22C51.70 52.78 54.64 53.74 54.64 56.38C54.64 58.96 53.08 59.68 50.80 59.74C46.78 59.74 45.70 58.24 44.44 53.98L43.12 53.98L43.12 61.60L44.44 61.60C44.50 60.94 44.92 60.58 45.46 60.58C46.36 60.58 47.68 61.54 51.34 61.54C55.24 61.54 58.30 59.50 58.30 55.60C58.30 51.46 54.88 50.14 51.82 48.52C49.24 47.02 46.78 46 46.78 43.66C46.78 41.80 48.10 40.72 50.20 40.66C53.62 40.66 55.06 42.94 55.84 45.76Z" />
    </svg>