<svg xmlns="http://www.w3.org/2000/svg" viewBox="0 0 100 100">
        <path d="M66.82 63.46C65.20 65.86 63.40 66.82 60.94 66.82C57.76 66.82 55.78 64.96 52.66 61.66C56.08 56.98 57.46 54.70 59.86 50.56C61.24 48.16 62.62 47.32 65.56 47.32L65.56 45.46L52.36 45.46L52.36 47.32C55.18 47.32 56.08 48.04 56.08 49.78C56.08 52.30 54.76 54.82 51.34 60.16C47.92 55.72 45.88 52.48 42.94 47.50C49.66 44.50 52 41.74 52 37.54C52 32.68 48.40 30.28 44.02 30.28C38.32 30.28 34.60 33.46 34.60 38.08C34.60 41.32 35.56 43.78 37.78 47.98C29.98 52.42 26.80 56.02 26.80 61.48C26.80 67.54 30.52 70.84 37.24 70.84C41.98 70.84 45.16 69.40 49.24 65.32C53.32 69.34 55 70.84 58.78 70.84C62.74 70.84 66.28 68.38 67.84 64.12ZM47.80 63.82C44.56 66.70 42.22 67.18 39.40 67.18C34.90 67.18 32.32 65.02 32.32 59.98C32.32 55.72 34.18 52.72 38.74 49.84C42.28 56.20 44.56 59.62 47.80 63.82ZM48.58 37.42C48.58 40.84 47.08 43.42 42.04 45.88C39.88 41.68 39.10 39.64 39.10 36.88C39.10 34 40.96 32.08 43.90 32.08C46.96 32.08 48.58 34.42 48.58 37.42Z" />
    </svg>