<svg xmlns="http://www.w3.org/2000/svg" viewBox="0 0 100 100">
        <path d="M62.62 43.66L59.86 43.66L58.30 46.24L57.88 46.24C56.62 44.68 54.82 43.30 51.94 43.30C43.66 43.30 39.82 50.98 39.82 58.54C39.82 68.08 44.44 70.72 49.06 70.72C52.66 70.72 55.78 68.56 57.82 65.08L58.12 65.08C58.60 68.98 60.04 70.48 63.82 70.48C71.08 70.48 75.70 64.48 75.70 54.04C75.70 41.44 67.42 32.44 53.08 32.44C38.62 32.44 28.60 42.34 28.60 56.86C28.60 71.68 37.42 81.16 53.32 81.16C58.54 81.16 63.22 80.08 68.62 77.02L67.84 75.28C62.80 77.68 58.24 78.16 53.80 78.16C40.72 78.16 32.92 70.12 32.92 56.44C32.92 42.82 41.08 35.08 53.08 35.08C64.18 35.08 71.74 42.34 71.74 54.04C71.74 62.32 69.58 67 64.66 67C62.80 67 62.38 65.50 62.38 63.82ZM57.70 61.78C56.74 64.24 54.58 67 50.80 67C47.68 67 44.74 65.14 44.74 57.28C44.74 51.76 46.48 45.40 52.06 45.40C55.24 45.40 57.34 47.92 57.82 50.62Z" />
    </svg>