<svg xmlns="http://www.w3.org/2000/svg" viewBox="0 0 200 200">
        <path d="M18.72 147.91C13.54 147.91 13.18 146.90 13.18 142.73L13.18 99.17L11.38 99.17L1.87 101.69L1.87 103.63C1.87 103.63 2.95 103.49 4.18 103.49C5.98 103.49 7.20 103.63 7.20 106.58L7.20 142.73C7.20 146.76 6.91 147.91 2.16 147.91L2.16 150L18.72 150ZM38.88 147.98C34.06 147.98 33.70 146.90 33.70 142.73L33.70 115.30L31.82 115.30L22.75 117.31L22.75 119.40C22.75 119.40 23.54 119.26 24.55 119.26C26.64 119.26 27.72 119.54 27.72 122.64L27.72 142.73C27.72 146.83 27.50 147.98 22.68 147.98L22.68 150L38.88 150ZM30.82 101.54C28.30 101.54 26.71 103.42 26.71 105.58C26.71 107.81 28.37 109.68 30.82 109.68C33.34 109.68 34.92 107.81 34.92 105.58C34.92 103.42 33.34 101.54 30.82 101.54ZM54.22 124.30C56.30 122.35 59.47 119.69 63.22 119.69C66.53 119.69 68.98 121.27 68.98 127.39L68.98 141.65C68.98 146.69 68.54 147.91 63.43 147.91L63.43 150L80.50 150L80.50 147.91C75.31 147.91 74.95 146.62 74.95 141.65L74.95 124.15C77.33 122.14 80.28 119.69 83.23 119.69C86.62 119.69 89.42 121.27 89.42 127.82L89.42 141.65C89.42 146.04 89.21 147.91 84.31 147.91L84.31 150L100.58 150L100.58 147.91C95.62 147.91 95.40 146.18 95.40 141.65L95.40 126.96C95.40 118.25 91.73 115.08 86.11 115.08C82.30 115.08 78.62 117.17 74.66 121.06L74.38 121.06C72.94 117.60 70.49 115.08 66.38 115.08C61.49 115.08 58.18 117.74 54.29 121.13L54 121.13L54 115.30L52.27 115.30L43.27 117.38L43.27 119.47C43.27 119.47 44.14 119.33 45.22 119.33C47.23 119.33 48.24 119.98 48.24 122.57L48.24 142.73C48.24 147.05 47.74 147.91 43.20 147.91L43.20 150L59.62 150L59.62 147.91C55.15 147.91 54.22 147.05 54.22 143.02Z" />
    </svg>