<svg xmlns="http://www.w3.org/2000/svg" viewBox="0 0 100 100">
        <path d="M38.50 71.50L41.08 71.50L41.26 65.68C46.96 65.26 49.72 61.78 51.88 57.16L50.74 56.32C48.04 59.80 46.24 61.42 42.34 61.42L41.44 61.42L42.28 38.50C45.58 39.76 44.44 45.16 48.40 45.16C50.08 45.16 50.92 44.20 50.92 42.46C50.92 39.04 47.80 36.34 42.34 36.22L42.58 30.58L40 30.58L39.76 36.40C32.44 37.36 27.76 43.06 27.76 51.64C27.76 59.44 32.08 64.90 38.68 65.62ZM32.50 48.82C32.50 42.46 35.44 38.80 39.70 38.32L38.86 60.82C34.84 59.20 32.50 54.64 32.50 48.82Z" />
    </svg>