<svg xmlns="http://www.w3.org/2000/svg" viewBox="0 0 100 100">
        <path d="M53.14 35.68C53.14 30.70 50.20 27.04 45.10 27.04C31.12 27.04 29.56 45.16 28.84 62.62L27.70 82.84L29.26 83.02L33.64 81.46C33.34 76.12 33.16 68.74 33.04 63.76L33.52 63.76C34.90 66.28 37.42 70.66 43.18 70.66C47.02 70.66 54.40 68.86 54.40 59.86C54.40 52.54 49.60 48.16 45.40 46.66L45.40 46.48C48.76 44.74 53.14 41.50 53.14 35.68ZM42.10 65.68C35.80 65.68 33.64 61.72 33.10 55.66C33.28 44.20 33.64 31.72 43.90 31.72C47.80 31.72 50.08 33.70 50.08 37.18C50.08 43.06 43.78 45.22 42.40 45.28C42.22 45.28 39.22 44.98 38.62 44.98C37.60 44.98 37.36 46 37.48 47.08C37.60 48.52 38.56 49.96 39.04 49.96C39.76 49.96 41.62 49.06 43.60 47.68C45.40 48.70 50.62 51.10 50.62 58.24C50.62 64.06 47.32 65.68 42.10 65.68Z" />
    </svg>