<svg xmlns="http://www.w3.org/2000/svg" viewBox="0 0 100 100">
        <path d="M52.36 42.16L52.06 41.62L46.90 41.80L46.72 53.14C46.66 54.64 43.72 65.80 38.32 65.80C35.08 65.80 32.86 61.90 32.86 58.30C32.86 57.58 32.92 56.98 32.92 56.98L35.08 42.10L34.84 41.62L29.44 41.80L29.50 61.06C28.12 68.98 27.70 74.44 27.64 82.84L28.60 83.02L33.10 81.46C32.38 74.38 32.20 70.72 32.14 65.86L32.44 65.86C33.28 67.54 34.78 70.78 38.08 70.78C41.02 70.78 44.38 68.98 46.30 60.16L46.66 60.16C46.96 63.34 47.14 64.48 47.32 65.68C47.80 68.50 48.58 70.60 51.52 70.60C55.42 70.60 57.46 67.30 58.42 64.48L57.40 63.82C56.50 65.02 55.60 66.16 53.68 66.16C51.46 66.16 50.26 64.24 49.96 59.68C49.90 58.78 49.78 57.34 49.78 56.98Z" />
    </svg>