<svg xmlns="http://www.w3.org/2000/svg" viewBox="0 0 100 100">
        <path d="M34.18 81.94C33.52 76.30 33.10 72.04 32.50 63.58L32.92 63.58C34.36 66.64 36.52 70.66 41.14 70.66C49.30 70.66 53.68 63.52 53.68 55.24C53.68 44.98 48.58 41.14 42.94 41.14C34.36 41.14 29.14 47.08 28.90 62.08C28.84 67.54 28.60 74.86 28.60 82.84L29.50 83.02ZM32.80 56.26C32.80 49.36 37.30 46.42 42.58 46.42C46.54 46.42 50.86 48.10 50.86 55.36C50.86 62.14 46.60 65.74 41.08 65.74C36.04 65.74 32.80 61.66 32.80 56.26Z" />
    </svg>