<svg xmlns="http://www.w3.org/2000/svg" viewBox="0 0 100 100">
        <path d="M54.22 42.46L54.22 41.74L48.22 41.74L39.46 56.74L39.22 56.74C37.84 50.56 36.10 41.26 30.22 41.26C26.80 41.26 24.76 44.38 23.74 47.92L24.76 48.52C25.72 47.14 26.68 45.82 29.14 45.82C32.86 45.82 34.72 49.48 36.28 56.08L37.12 59.68L22.30 81.46L22.36 82.42L28.24 82.42L38.26 64.42L38.50 64.42L39.94 70.84C41.92 79.90 43.54 82.60 47.62 82.60C50.92 82.60 52.72 79.66 53.62 76.24L52.66 75.76C51.52 77.26 50.50 77.80 48.76 77.80C45.64 77.80 43.60 74.44 40.96 63.40L40.48 61.30Z" />
    </svg>