<svg xmlns="http://www.w3.org/2000/svg" viewBox="0 0 100 100">
        <path d="M27.04 56.80C27.04 66.04 32.80 70.06 39.46 70.66C39.10 73.06 38.56 76.42 37.78 82.66L38.38 83.20L43.24 83.20L43.54 70.66C51.94 69.88 57.40 64.24 57.40 55.60C57.40 47.26 53.02 42.10 45.52 41.26C45.94 37.06 46.36 32.92 46.84 29.44L46.24 28.90L41.38 28.90L41.02 41.26C31.90 42.28 27.04 48.82 27.04 56.80ZM29.80 56.68C29.80 51.40 33.88 47.20 40.84 46.48C40.54 54.16 40.18 62.02 39.82 65.80C35.20 65.26 29.80 62.80 29.80 56.68ZM54.64 56.02C54.64 62.20 49.60 65.20 43.72 65.80C43.84 61.24 44.32 53.98 44.98 46.48C50.98 47.14 54.64 50.68 54.64 56.02Z" />
    </svg>