<svg xmlns="http://www.w3.org/2000/svg" viewBox="0 0 100 100">
        <path d="M47.62 70.90C50.02 70.90 52.30 70.54 54.34 69.82C56.26 71.92 58.42 73.90 62.20 73.90C63.82 73.90 65.50 73.60 67.18 73.36L66.82 70.78C65.32 71.02 63.76 71.26 62.20 71.26C60.16 71.26 58.66 70.06 57.22 68.62C63.52 65.20 67.42 58.36 67.42 50.26C67.42 38.62 59.50 29.86 47.86 29.86C35.86 29.86 27.64 38.62 27.64 50.26C27.64 61.66 35.86 70.90 47.62 70.90ZM40.18 66.76C39.28 66.34 38.38 65.80 37.60 65.26L37.60 35.20C40.30 33.46 43.66 32.44 47.62 32.44C51.46 32.44 54.82 33.52 57.46 35.44L57.46 65.32C56.80 65.80 56.08 66.22 55.30 66.58C53.38 64.60 51.22 62.74 47.86 62.74C44.62 62.74 42.16 64.36 40.18 66.76ZM35.02 62.92C32.02 59.62 30.40 55.12 30.40 50.26C30.40 44.98 32.02 40.54 35.02 37.42ZM60.04 37.72C63.04 40.96 64.66 45.46 64.66 50.26C64.66 55.12 63.04 59.68 60.04 62.98ZM47.62 68.32C45.94 68.32 44.38 68.14 42.88 67.72C44.14 66.34 45.58 65.38 47.68 65.38C49.66 65.38 51.04 66.40 52.36 67.72C50.92 68.08 49.30 68.32 47.62 68.32Z" />
    </svg>