<svg xmlns="http://www.w3.org/2000/svg" viewBox="0 0 100 100">
        <path d="M55.18 70L67.48 70L54.58 52.90C59.20 51.40 62.50 48.10 62.50 42.10C62.50 33.46 55.66 30.58 49 30.58L29.32 30.58L29.32 70L39.16 70L39.16 53.92L43.60 53.92ZM51.70 33.28L51.70 51.16C50.50 51.34 49.30 51.46 48.10 51.46L39.16 51.46L39.16 33.10L48.82 33.10C49.78 33.10 50.74 33.16 51.70 33.28ZM31.90 33.10L36.58 33.10L36.58 67.48L31.90 67.48ZM51.88 53.56L62.38 67.48L56.50 67.48L46.72 53.92L47.50 53.92C49 53.92 50.44 53.80 51.88 53.56ZM59.68 42.04C59.68 46.66 57.34 49.12 54.28 50.38L54.28 33.94C57.40 35.14 59.68 37.54 59.68 42.04Z" />
    </svg>