<svg xmlns="http://www.w3.org/2000/svg" viewBox="0 0 100 100">
        <path d="M79.54 54.16C73.66 51.70 68.98 47.08 64.96 42.46L63.76 43.66C65.08 45.70 67 47.86 68.80 49.54C69.40 50.14 69.64 50.56 69.64 51.10C69.64 51.70 68.68 52.42 68.08 52.42L38.86 52.42C37.78 52.42 37.30 51.82 37.30 51.22C37.30 50.74 37.60 50.02 38.14 49.48C40 47.56 41.74 45.64 43.18 43.60L41.92 42.40C37.90 47.08 33.22 51.64 27.34 54.16L27.34 54.76C33.22 57.22 37.90 61.84 41.86 66.46L43.12 65.26C41.74 63.28 39.88 61.12 38.08 59.38C37.48 58.78 37.24 58.42 37.24 57.82C37.24 57.22 38.20 56.50 38.80 56.50L68.02 56.50C69.10 56.50 69.58 57.10 69.58 57.70C69.58 58.24 69.28 58.90 68.74 59.44C66.88 61.36 65.08 63.34 63.70 65.32L64.90 66.52C68.98 61.84 73.66 57.28 79.54 54.76Z" />
    </svg>