<svg xmlns="http://www.w3.org/2000/svg" viewBox="0 0 100 100">
        <path d="M39.16 41.50C31.90 41.50 27.70 48.16 27.70 56.50C27.70 66.28 33.52 70.72 39.22 70.72C46.90 70.72 50.68 62.62 50.68 49.18C50.68 34.48 46.18 27.34 39.52 27.34C35.98 27.34 32.92 29.38 30.70 32.32L31.78 33.34C33.70 32.14 35.92 31.66 37.84 31.66C44.74 31.66 47.56 38.26 47.80 45.76L47.50 45.88C45.46 43.18 42.82 41.50 39.16 41.50ZM39.16 46.66C44.44 46.66 47.14 50.62 47.14 56.08C47.14 61.90 44.08 65.74 39.22 65.74C34.48 65.74 30.52 62.08 30.52 56.26C30.52 51.16 33.52 46.66 39.16 46.66Z" />
    </svg>