<svg xmlns="http://www.w3.org/2000/svg" viewBox="0 0 100 100">
        <path d="M46.68 24.74C45.48 25.82 44.88 26.96 44.88 28.40C44.88 30.14 45.78 31.04 47.22 31.04C49.02 31.04 51.24 29.54 51.24 26.48C51.24 23.06 48.66 21.38 45.72 21.38C34.98 21.38 31.32 37.34 28.92 50.24C26.46 63.26 25.02 76.22 19.68 76.22C18.66 76.22 18.24 75.86 18.24 75.86L18.24 75.44C19.02 74.30 19.62 73.34 19.62 71.66C19.62 70.16 18.84 69.14 17.28 69.14C15.42 69.14 13.80 70.70 13.80 73.46C13.80 75.92 15.48 78.56 19.74 78.56C27.84 78.56 32.64 65.12 35.70 47.48C37.62 37.10 39.12 24.02 44.64 24.02C46.14 24.02 46.68 24.38 46.68 24.38ZM66.60 24.74C65.40 25.82 64.80 26.96 64.80 28.40C64.80 30.14 65.70 31.04 67.14 31.04C68.94 31.04 71.16 29.54 71.16 26.48C71.16 23.06 68.58 21.38 65.64 21.38C54.90 21.38 51.24 37.34 48.84 50.24C46.38 63.26 44.94 76.22 39.60 76.22C38.58 76.22 38.16 75.86 38.16 75.86L38.16 75.44C38.94 74.30 39.54 73.34 39.54 71.66C39.54 70.16 38.76 69.14 37.20 69.14C35.34 69.14 33.72 70.70 33.72 73.46C33.72 75.92 35.40 78.56 39.66 78.56C47.76 78.56 52.56 65.12 55.62 47.48C57.54 37.10 59.04 24.02 64.56 24.02C66.06 24.02 66.60 24.38 66.60 24.38Z" />
    </svg>