<svg xmlns="http://www.w3.org/2000/svg" viewBox="0 0 100 100">
        <path d="M35.14 67.06C35.14 64.78 33.22 63.22 31.24 63.22C29.26 63.22 27.34 64.72 27.34 67.06C27.34 69.46 28.90 71.02 31.24 71.02C33.58 71.02 35.14 69.16 35.14 67.06ZM60.76 67.06C60.76 64.78 58.84 63.22 56.86 63.22C54.88 63.22 52.96 64.72 52.96 67.06C52.96 69.46 54.52 71.02 56.86 71.02C59.20 71.02 60.76 69.16 60.76 67.06ZM47.98 41.86C47.98 39.58 46.06 38.02 44.08 38.02C42.10 38.02 40.18 39.52 40.18 41.86C40.18 44.26 41.74 45.82 44.08 45.82C46.42 45.82 47.98 43.96 47.98 41.86Z" />
    </svg>