<svg xmlns="http://www.w3.org/2000/svg" viewBox="0 0 100 100">
        <path d="M35.14 41.92C35.14 39.52 33.52 38.02 31.18 38.02C28.84 38.02 27.34 39.82 27.34 41.92C27.34 44.20 29.20 45.82 31.18 45.82C33.16 45.82 35.14 44.26 35.14 41.92ZM60.76 41.92C60.76 39.52 59.14 38.02 56.80 38.02C54.46 38.02 52.96 39.82 52.96 41.92C52.96 44.20 54.82 45.82 56.80 45.82C58.78 45.82 60.76 44.26 60.76 41.92ZM47.92 67.12C47.92 64.72 46.30 63.22 43.96 63.22C41.62 63.22 40.12 65.02 40.12 67.12C40.12 69.40 41.98 71.02 43.96 71.02C45.94 71.02 47.92 69.46 47.92 67.12Z" />
    </svg>