<svg xmlns="http://www.w3.org/2000/svg" viewBox="0 0 100 100">
        <path d="M59.68 29.32L56.38 29.32L52.84 37.42L45.82 37.42C35.98 37.42 29.50 45.34 29.50 54.40C29.50 61.12 32.92 67.18 38.62 70L34.42 79.60L37.78 79.60L41.50 71.02C42.82 71.38 44.20 71.56 45.64 71.56L63.76 71.56L63.76 67.48L46.18 67.48C45.10 67.48 44.08 67.36 43.18 67.18L54.40 41.44L63.76 41.44L63.76 37.42L56.14 37.42ZM51.10 41.44L40.30 66.16C35.98 63.94 34.18 59.20 34.18 54.40C34.18 47.86 37.48 41.44 46.12 41.44Z" />
    </svg>