<svg xmlns="http://www.w3.org/2000/svg" viewBox="0 0 100 100">
        <path d="M40.60 50.86C38.68 50.86 37 52.06 37 54.46C37 56.80 38.56 58 40.60 58C42.64 58 44.14 56.92 44.14 54.52C44.14 52.06 42.58 50.86 40.60 50.86ZM40.60 32.44C38.68 32.44 37 33.64 37 36.04C37 38.38 38.56 39.58 40.60 39.58C42.64 39.58 44.14 38.50 44.14 36.10C44.14 33.64 42.58 32.44 40.60 32.44ZM40.60 69.28C38.68 69.28 37 70.48 37 72.88C37 75.22 38.56 76.42 40.60 76.42C42.64 76.42 44.14 75.34 44.14 72.94C44.14 70.48 42.58 69.28 40.60 69.28Z" />
    </svg>