<svg xmlns="http://www.w3.org/2000/svg" viewBox="0 0 100 100">
        <path d="M53.68 50.86C51.70 50.86 50.14 52.06 50.14 54.52C50.14 56.92 51.64 58 53.68 58C55.72 58 57.28 56.80 57.28 54.46C57.28 52.06 55.60 50.86 53.68 50.86ZM40.54 37.84C38.56 37.84 37 39.04 37 41.50C37 43.90 38.50 44.98 40.54 44.98C42.58 44.98 44.14 43.78 44.14 41.44C44.14 39.04 42.46 37.84 40.54 37.84ZM67.12 63.88C65.14 63.88 63.58 65.08 63.58 67.54C63.58 69.94 65.08 71.02 67.12 71.02C69.16 71.02 70.72 69.82 70.72 67.48C70.72 65.08 69.04 63.88 67.12 63.88Z" />
    </svg>