<svg xmlns="http://www.w3.org/2000/svg" viewBox="0 0 100 100">
        <path d="M60.48 46.58C60.48 39.68 57.90 35.90 52.44 35.90C48.66 35.90 46.02 38.06 42.78 40.94L42.54 40.94L42.60 36.08L41.22 36.08L33.60 37.82L33.60 39.56C33.60 39.56 34.20 39.44 35.22 39.44C36.84 39.44 37.74 39.92 37.74 42.08L37.74 58.94C37.74 62.30 37.56 63.32 33.54 63.32L33.54 65L47.28 65L47.28 63.32C42.96 63.32 42.72 62.30 42.72 58.94L42.72 43.52C44.52 41.90 46.74 39.74 49.98 39.74C52.68 39.74 55.50 40.88 55.50 48.08L55.50 58.94C55.50 62.30 55.32 63.32 51.06 63.32L51.06 65L64.92 65L64.92 63.32C60.90 63.32 60.48 62.30 60.48 58.94ZM14.70 48.80C14.70 62.18 21 71.72 30.66 76.76L31.62 75.20C22.86 69.26 19.62 61.04 19.62 48.80C19.62 36.56 22.86 28.34 31.62 22.40L30.66 20.84C21 25.88 14.70 35.42 14.70 48.80ZM83.10 48.80C83.10 35.42 76.80 25.88 67.14 20.84L66.18 22.40C74.94 28.34 78.18 36.56 78.18 48.80C78.18 61.04 74.94 69.26 66.18 75.20L67.14 76.76C76.80 71.72 83.10 62.18 83.10 48.80Z" />
    </svg>