<svg xmlns="http://www.w3.org/2000/svg" viewBox="0 0 100 100">
        <path d="M61.50 36.62L51 36.62L51 38.36C53.16 38.36 54.42 38.66 54.42 39.98C54.42 40.94 54.06 41.66 54 41.96L48.84 55.52L47.58 59.18L47.22 59.18L46.08 55.58L40.98 42.20C40.62 41.36 40.38 40.64 40.38 39.86C40.38 38.90 41.16 38.36 43.50 38.36L43.50 36.62L30.84 36.62L30.84 38.36C33.42 38.36 34.14 39.02 35.70 42.74L44.64 65.36L47.52 65.36L57 42.32C58.20 39.20 59.16 38.36 61.50 38.36ZM14.70 48.80C14.70 62.18 21 71.72 30.66 76.76L31.62 75.20C22.86 69.26 19.62 61.04 19.62 48.80C19.62 36.56 22.86 28.34 31.62 22.40L30.66 20.84C21 25.88 14.70 35.42 14.70 48.80ZM77.40 48.80C77.40 35.42 71.10 25.88 61.44 20.84L60.48 22.40C69.24 28.34 72.48 36.56 72.48 48.80C72.48 61.04 69.24 69.26 60.48 75.20L61.44 76.76C71.10 71.72 77.40 62.18 77.40 48.80Z" />
    </svg>